<svg xmlns="http://www.w3.org/2000/svg" xmlns:xlink="http://www.w3.org/1999/xlink" width="60" height="60">
    <defs>
        <filter x="-14%" y="-14%" width="128%" height="128%" filterUnits="objectBoundingBox" id="a">
            <feOffset in="SourceAlpha" result="shadowOffsetOuter1"/>
            <feGaussianBlur stdDeviation="2" in="shadowOffsetOuter1" result="shadowBlurOuter1"/>
            <feColorMatrix values="0 0 0 0 0 0 0 0 0 0 0 0 0 0 0 0 0 0 0.08 0" in="shadowBlurOuter1" result="shadowMatrixOuter1"/>
            <feOffset dy="1" in="SourceAlpha" result="shadowOffsetOuter2"/>
            <feColorMatrix values="0 0 0 0 0 0 0 0 0 0 0 0 0 0 0 0 0 0 0.03 0" in="shadowOffsetOuter2" result="shadowMatrixOuter2"/>
            <feMorphology radius=".5" operator="dilate" in="SourceAlpha" result="shadowSpreadOuter3"/>
            <feOffset in="shadowSpreadOuter3" result="shadowOffsetOuter3"/>
            <feColorMatrix values="0 0 0 0 0 0 0 0 0 0 0 0 0 0 0 0 0 0 0.02 0" in="shadowOffsetOuter3" result="shadowMatrixOuter3"/>
            <feMerge>
                <feMergeNode in="shadowMatrixOuter1"/>
                <feMergeNode in="shadowMatrixOuter2"/>
                <feMergeNode in="shadowMatrixOuter3"/>
            </feMerge>
        </filter>
        <circle id="b" cx="25" cy="25" r="25"/>
    </defs>
    <g fill="none" fill-rule="evenodd">
        <g transform="matrix(-1 0 0 1 55 5)">
            <use fill="#000" filter="url(#a)" xlink:href="#b"/>
            <use fill="#FFF" xlink:href="#b"/>
        </g>

<path d="M30.2,31.7c-1.4,1.7-3,4-4.4,5.2c-0.7,0.7-1.4,0.7-2.3,0.5c-0.7-0.5-0.9-0.7-0.5-1.2c1.6-1.7,3.7-4.2,5.3-6.1
			c-1.7-1.9-4-4.2-5.4-6c-0.5-0.5-0.2-0.7,0.5-1.2c0.7-0.5,1.6-0.5,2.3,0.4c1.7,1.9,3.3,4,4.3,5.1c1.2-1.4,3-3.8,4.4-5.2
			c0.7-0.7,1.6-0.7,2.3-0.5c0.9,0.5,0.9,0.7,0.5,1.2c-1.6,1.9-3.7,4.2-5.6,6.1c1.7,1.9,4,4.4,5.4,6c0.5,0.5,0.2,0.7-0.5,1.2
			c-0.7,0.5-1.6,0.2-2.3-0.4L30.2,31.7z" style="
    fill: #333;
"></path>
    </g>
</svg>